<?xml version="1.0" encoding="UTF-8" standalone="no"?><!DOCTYPE svg PUBLIC "-//W3C//DTD SVG 1.1//EN" "http://www.w3.org/Graphics/SVG/1.1/DTD/svg11.dtd"><svg width="100%" height="100%" viewBox="0 0 1080 1080" version="1.1" xmlns="http://www.w3.org/2000/svg" xmlns:xlink="http://www.w3.org/1999/xlink" xml:space="preserve" xmlns:serif="http://www.serif.com/" style="fill-rule:evenodd;clip-rule:evenodd;stroke-linejoin:round;stroke-miterlimit:2;"><path d="M98.586,139.579l0,646.622c0,67.251 54.518,121.769 121.769,121.769l0.001,-445.08l31.826,0l-0,445.08l120.385,-0l0,-890.16l-120.385,0l-0,335.119l-31.826,0l-0.001,-335.119c-67.251,0 -121.769,54.518 -121.769,121.769Zm578.404,284.559l-72.178,0l-0,-30.442l72.178,-0l0,-264.616c0,-61.474 -54.489,-110.5 -118.863,-111.261l-1.522,-0.009l-153.595,0l-0,890.16l153.595,-0c65.036,-0 120.385,-50.577 120.385,-111.27l0,-372.562Zm30.443,-30.354l153.595,-0l0,402.916l-31.826,-0l-0,-372.627l-121.769,-0l-0,372.627c-0,60.693 53.966,111.27 121.769,111.27l31.826,-0c65.036,-0 120.386,-50.577 120.386,-111.27l-0,-513.612l-152.212,-0l-0,-154.008l31.826,0l0,123.164l120.386,-0l-0,-123.164c-0,-61.957 -55.35,-111.27 -120.386,-111.27l-31.826,0c-67.803,0 -121.769,49.313 -121.769,111.27l-0,264.704Zm-156.082,402.916l-31.826,-0l-0,-333.81l31.826,0l-0,333.81Zm-0.003,-667.74l-0,223.75l-31.826,-0l-0,-223.75l31.826,0Z" style="fill:url(#_Linear1);"/><g><path d="M147.058,972.314l-17.081,0l-0,87.642l17.081,0l0,-39.025l13.534,0l0,39.025l17.082,0l-0,-87.642l-17.082,0l0,34.426l-13.534,0l0,-34.426Z" style="fill:#b93025;fill-rule:nonzero;"/><path d="M193.441,972.314l0,87.642l36.923,0l-0,-14.454l-19.841,0l-0,-23.651l19.841,-0l-0,-14.191l-19.841,0l-0,-20.892l19.841,0l-0,-14.454l-36.923,0Z" style="fill:#b93025;fill-rule:nonzero;"/><path d="M244.817,972.314l0,87.642l36.923,0l-0,-14.454l-19.841,0l-0,-73.188l-17.082,0Z" style="fill:#b93025;fill-rule:nonzero;"/><path d="M296.193,972.314l0,87.642l17.082,0l0,-28.513l1.84,-0c17.607,-0 26.805,-10.118 26.805,-29.433c-0,-19.972 -8.804,-29.696 -26.805,-29.696l-18.922,0Zm17.082,14.06c8.147,-0.132 11.169,4.205 11.169,15.636c-0,6.57 -1.314,11.3 -3.942,13.665c-1.708,1.577 -3.548,1.971 -7.227,1.971l0,-31.272Z" style="fill:#b93025;fill-rule:nonzero;"/><path d="M386.594,972.314l0,87.642l20.63,0c19.315,0 29.695,-8.935 29.695,-25.491c0,-12.088 -5.124,-18.658 -16.95,-21.812c10.249,-2.102 15.505,-8.541 15.505,-19.184c-0,-13.665 -9.066,-21.155 -25.622,-21.155l-23.258,0Zm17.082,35.083l-0,-21.943l3.548,0c6.569,0 11.168,4.468 11.168,10.906c0,6.57 -4.599,11.037 -11.168,11.037l-3.548,0Zm-0,39.025l-0,-25.885l3.548,0c7.621,0 12.22,4.73 12.22,12.877c-0,8.146 -4.599,13.008 -12.22,13.008l-3.548,0Z" style="fill:#b93025;fill-rule:nonzero;"/><path d="M473.316,970.081c-7.621,-0 -13.928,2.89 -17.87,8.146c-6.044,8.147 -8.409,18.659 -8.409,37.843c-0,19.446 2.234,29.564 8.409,37.973c3.811,5.256 10.249,8.147 18.133,8.147c7.49,-0 13.928,-2.891 17.739,-8.147c6.044,-8.146 8.409,-18.658 8.409,-37.054c-0,-20.235 -2.234,-30.352 -8.409,-38.762c-3.942,-5.256 -10.118,-8.146 -18.002,-8.146Zm0,14.848c6.964,-0 8.935,7.095 8.935,31.535c0,23.388 -2.102,30.747 -8.803,30.747c-6.833,-0 -8.935,-7.096 -8.935,-31.141c-0,-23.915 2.102,-31.141 8.803,-31.141Z" style="fill:#b93025;fill-rule:nonzero;"/><path d="M506.56,972.314l16.556,41.128l-17.476,46.514l17.476,0l10.511,-32.981l9.986,32.981l18.265,0l-17.739,-46.514l17.213,-41.128l-17.739,0l-9.986,28.119l-8.278,-28.119l-18.789,0Z" style="fill:#b93025;fill-rule:nonzero;"/><path d="M650.439,990.71c-3.022,-13.928 -10.643,-20.629 -23.52,-20.629c-14.717,-0 -24.177,9.329 -24.177,23.782c-0,5.913 1.445,10.644 4.599,14.848c2.628,3.548 5.518,6.702 8.541,9.198l8.54,7.227c6.702,5.65 9.198,9.329 9.198,13.665c0,4.73 -3.285,8.41 -7.621,8.41c-4.862,-0 -8.146,-3.811 -9.46,-11.169l-15.768,3.81c2.234,14.323 11.037,22.338 24.571,22.338c15.242,-0 25.36,-10.249 25.36,-25.491c-0,-9.067 -3.679,-15.636 -13.271,-23.652l-8.147,-6.832c-7.227,-6.176 -9.329,-9.198 -9.329,-13.797c-0,-4.599 3.022,-7.884 7.358,-7.884c4.73,0 7.49,3.679 8.409,11.3l14.717,-5.124Z" style="fill:#b93025;fill-rule:nonzero;"/><path d="M656.615,972.314l20.235,52.953l-0,34.689l17.081,0l0,-34.689l20.235,-52.953l-18.001,0l-10.512,34.558l-10.38,-34.558l-18.658,0Z" style="fill:#b93025;fill-rule:nonzero;"/><path d="M768.302,990.71c-3.022,-13.928 -10.643,-20.629 -23.52,-20.629c-14.717,-0 -24.177,9.329 -24.177,23.782c-0,5.913 1.445,10.644 4.599,14.848c2.628,3.548 5.518,6.702 8.54,9.198l8.541,7.227c6.701,5.65 9.198,9.329 9.198,13.665c-0,4.73 -3.285,8.41 -7.621,8.41c-4.862,-0 -8.147,-3.811 -9.461,-11.169l-15.767,3.81c2.234,14.323 11.037,22.338 24.571,22.338c15.242,-0 25.36,-10.249 25.36,-25.491c-0,-9.067 -3.68,-15.636 -13.272,-23.652l-8.146,-6.832c-7.227,-6.176 -9.329,-9.198 -9.329,-13.797c-0,-4.599 3.022,-7.884 7.358,-7.884c4.73,0 7.49,3.679 8.409,11.3l14.717,-5.124Z" style="fill:#b93025;fill-rule:nonzero;"/><path d="M821.517,972.314l-44.28,0l-0,14.454l13.534,0l-0,73.188l17.081,0l0,-73.188l13.665,0l0,-14.454Z" style="fill:#b93025;fill-rule:nonzero;"/><path d="M832.423,972.314l0,87.642l36.923,0l-0,-14.454l-19.841,0l-0,-23.651l19.841,-0l-0,-14.191l-19.841,0l-0,-20.892l19.841,0l-0,-14.454l-36.923,0Z" style="fill:#b93025;fill-rule:nonzero;"/><path d="M883.799,972.314l0,87.642l15.768,0l0,-53.478l10.512,42.966l13.534,0l10.643,-42.966l-0,53.478l15.767,0l0,-87.642l-18.789,0l-14.191,55.45l-14.06,-55.45l-19.184,0Z" style="fill:#b93025;fill-rule:nonzero;"/></g><defs><linearGradient id="_Linear1" x1="0" y1="0" x2="1" y2="0" gradientUnits="userSpaceOnUse" gradientTransform="matrix(-7.36114e-13,890.16,-890.16,-7.36114e-13,540,17.8102)"><stop offset="0" style="stop-color:#ec6339;stop-opacity:1"/><stop offset="1" style="stop-color:#b82b00;stop-opacity:1"/></linearGradient></defs></svg>